<?xml version="1.0" encoding="utf-8"?>
<!-- Generator: Adobe Illustrator 25.2.3, SVG Export Plug-In . SVG Version: 6.00 Build 0)  -->
<svg version="1.1" id="Layer_1" xmlns="http://www.w3.org/2000/svg" xmlns:xlink="http://www.w3.org/1999/xlink" x="0px" y="0px"
	 viewBox="0 0 363.4 139.86" style="enable-background:new 0 0 363.4 139.86;" xml:space="preserve">
<style type="text/css">
	.st0{fill:#D5C9B9;}
</style>
<g>
	<path class="st0" d="M4.2,57.33c0-0.91,0.21-3.5,0.21-6.93c0-5.04-0.56-8.54-0.56-9.17c0-0.35,0.21-0.56,0.49-0.56
		c0.35,0,0.49,0.14,0.77,0.77c4.2,8.54,9.17,15.61,19.11,15.61c5.46,0,8.89-2.87,8.89-7.35c0-4.34-2.24-6.65-11.2-8.75l-3.57-0.84
		C8.05,37.8,3.78,32.97,3.78,26.04c0-9.59,9.24-14,17.92-14c8.33,0,12.18,3.22,14.7,3.22c1.26,0,1.61-0.7,1.82-2.03
		c0.14-0.91,0.28-1.26,0.77-1.26c0.42,0,0.56,0.21,0.56,0.63c0,0.7,0.07,3.85,0.28,6.37c0.28,3.29,0.84,7.42,0.84,7.84
		c0,0.21-0.21,0.42-0.49,0.42c-0.35,0-0.56-0.21-0.7-0.63c-3.78-7.77-8.89-13.65-17.57-13.65c-5.67,0-8.26,2.8-8.26,6.23
		c0,4.06,3.15,5.67,8.89,7.07l6.23,1.47c9.8,2.31,14.84,6.02,14.84,14.42c0,10.99-10.36,15.96-19.53,15.96
		c-8.12,0-13.09-3.22-15.89-3.22c-1.4,0-2.45,0.63-2.8,2.31c-0.14,0.7-0.21,0.91-0.7,0.91C4.27,58.1,4.2,57.96,4.2,57.33z"/>
	<path class="st0" d="M46.55,71.12c0-0.42,0.35-0.56,1.26-1.05c2.38-1.33,2.8-4.69,2.8-11.48V42.63c0-7.77-0.21-8.33-2.8-9.8
		c-1.05-0.63-1.4-0.7-1.4-1.19c0-0.35,0.14-0.49,0.63-0.49c6.79,0,14.28-2.1,15.05-2.1c0.35,0,0.49,0.07,0.49,0.42
		c0,0.7-0.91,3.78-0.91,9.52h0.14c0.77-6.16,3.85-10.22,11.13-10.22c7.21,0,12.81,5.74,12.81,14.28c0,9.17-5.6,15.05-14.07,15.05
		c-4.55,0-7.14-1.47-8.61-4.55v9.8c0,4.13,1.19,6.16,3.36,6.86c0.98,0.35,1.33,0.49,1.33,0.91c0,0.28-0.14,0.42-0.49,0.42
		c-1.33,0-6.51-0.49-10.43-0.49c-3.99,0-9.1,0.49-9.8,0.49C46.62,71.54,46.55,71.4,46.55,71.12z M68.18,56
		c3.29,0,4.41-2.45,4.41-12.95s-1.68-11.83-4.2-11.83c-3.15,0-5.46,3.99-5.53,11.83C62.79,52.57,65.17,56,68.18,56z"/>
	<path class="st0" d="M87.99,57.12c0-0.42,0.35-0.49,1.33-1.05c2.52-1.26,2.73-3.64,2.73-11.13v-2.66c0-6.23-0.63-8.96-2.66-10.15
		c-1.05-0.56-1.4-0.63-1.4-1.12c0-0.35,0.21-0.42,0.91-0.42c12.67-0.28,15.33-2.17,16.45-2.17c0.35,0,0.56,0.21,0.56,0.49
		c0,0.56-0.56,1.05-0.91,2.59c-0.35,1.68-0.49,5.18-0.49,10.08v2.59c0,8.75,0.63,10.64,3.5,12.18c0.56,0.28,0.84,0.35,0.84,0.7
		c0,0.28-0.21,0.49-0.49,0.49c-0.77,0-6.02-0.49-10.01-0.49c-4.06,0-9.17,0.49-9.87,0.49C88.2,57.54,87.99,57.4,87.99,57.12z
		 M97.58,12.25c4.48,0,7.42,2.66,7.42,6.72s-3.01,6.72-7.42,6.72c-4.2,0-7.35-2.59-7.35-6.72C90.23,14.91,93.31,12.25,97.58,12.25z"
		/>
	<path class="st0" d="M111.23,57.12c0-0.42,0.35-0.56,1.33-1.05c2.66-1.19,2.8-2.94,2.8-7.84v-9.24c0-4.06-0.21-5.67-2.73-6.72
		c-1.05-0.35-1.4-0.42-1.4-0.91c0-0.35,0.21-0.49,0.7-0.49c7.42,0,14.49-2.1,15.12-2.1c0.42,0,0.56,0.21,0.56,0.49
		c0,0.7-0.91,4.06-0.63,11.62h0.07c1.19-7.28,5.04-12.11,10.08-12.11c3.99,0,6.02,2.45,6.02,5.95c0,3.64-1.89,5.74-4.83,5.74
		c-5.25,0-4.34-6.3-6.44-6.3c-2.73,0-3.99,7.28-4.06,13.02v2.1c0,4.55,0.91,5.74,4.06,6.86c0.98,0.35,1.33,0.56,1.33,0.91
		c0,0.28-0.14,0.49-0.56,0.49c-0.84,0-6.65-0.49-11.06-0.49c-3.99,0-9.17,0.49-9.87,0.49C111.37,57.54,111.23,57.4,111.23,57.12z"/>
	<path class="st0" d="M144.9,57.12c0-0.42,0.35-0.49,1.33-1.05c2.52-1.26,2.73-3.64,2.73-11.13v-2.66c0-6.23-0.63-8.96-2.66-10.15
		c-1.05-0.56-1.4-0.63-1.4-1.12c0-0.35,0.21-0.42,0.91-0.42c12.67-0.28,15.33-2.17,16.45-2.17c0.35,0,0.56,0.21,0.56,0.49
		c0,0.56-0.56,1.05-0.91,2.59c-0.35,1.68-0.49,5.18-0.49,10.08v2.59c0,8.75,0.63,10.64,3.5,12.18c0.56,0.28,0.84,0.35,0.84,0.7
		c0,0.28-0.21,0.49-0.49,0.49c-0.77,0-6.02-0.49-10.01-0.49c-4.06,0-9.17,0.49-9.87,0.49C145.11,57.54,144.9,57.4,144.9,57.12z
		 M154.49,12.25c4.48,0,7.42,2.66,7.42,6.72s-3.01,6.72-7.42,6.72c-4.2,0-7.35-2.59-7.35-6.72
		C147.14,14.91,150.22,12.25,154.49,12.25z"/>
	<path class="st0" d="M171.01,45.71V34.09c0-2.1-0.42-2.59-1.96-2.73l-1.19-0.14c-0.7-0.07-0.91-0.35-0.91-0.77
		c0-0.42,0.28-0.7,0.91-0.77c7.77-0.56,10.85-3.64,14.49-11.13c0.28-0.56,0.49-0.77,0.91-0.77c0.28,0,0.56,0.21,0.56,0.84
		l-0.07,10.71c0,0.28,0.21,0.49,0.42,0.49l7.7-0.07c0.56,0,1.05,0.21,1.05,0.98c0,0.7-0.42,0.98-0.91,0.98
		c-1.61,0-3.85-0.07-7.84-0.14c-0.28,0-0.49,0.21-0.49,0.42l-0.14,18.13c0,3.15,1.19,4.62,3.99,4.62c2.94,0,4.41-2.17,4.41-5.11
		c0-0.7,0.28-0.84,0.63-0.84c0.35,0,0.63,0.14,0.63,0.91c0,4.2-2.38,8.4-10.43,8.4C174.93,58.1,171.01,54.88,171.01,45.71z"/>
	<path class="st0" d="M231.35,51.24c-1.47,4.83-5.46,6.86-11.13,6.86c-5.18,0-8.75-2.03-8.75-6.58c0-7,9.31-8.68,19.53-9.52v-5.81
		c0-5.04-1.96-6.3-4.97-6.3c-2.87,0-4.27,1.19-4.27,2.52c0,1.54,1.4,2.66,1.4,4.48c0,2.24-2.03,3.99-5.11,3.99
		c-3.15,0-5.11-1.75-5.11-4.48c0-3.92,3.99-7.63,15.12-7.63c9.66,0,16.8,2.8,16.8,13.51v9.94c0,1.68,0.63,2.45,1.61,2.45
		c1.05,0,1.82-0.63,1.82-3.01c0-0.42,0.28-0.56,0.7-0.56c0.35,0,0.56,0.14,0.56,0.56c0,3.71-1.4,6.44-8.47,6.44
		C235.48,58.1,232.33,56.21,231.35,51.24z M226.38,54.74c2.38,0,4.62-3.22,4.62-8.26v-3.36l-0.56,0.14
		c-3.08,0.63-4.48,1.12-5.46,2.1c-1.12,1.05-1.4,2.59-1.4,4.41C223.58,52.71,224.42,54.74,226.38,54.74z"/>
	<path class="st0" d="M274.19,57.12c0-0.42,0.35-0.56,1.26-1.12c1.54-1.19,1.68-2.1,1.68-7.56V35.21c0-3.01-0.98-4.06-2.94-4.06
		c-3.29,0-6.44,4.41-6.44,12.95v3.57c0,6.37,0.21,7.7,2.03,8.47c0.98,0.42,1.33,0.56,1.33,0.98c0,0.28-0.14,0.42-0.49,0.42
		c-0.56,0-5.18-0.49-9.1-0.49s-8.96,0.49-9.66,0.49c-0.42,0-0.49-0.14-0.49-0.42c0-0.42,0.35-0.56,1.26-1.05
		c2.52-1.4,2.66-2.17,2.66-8.89v-5.25c0-7.35-0.21-8.61-2.73-9.66c-0.98-0.35-1.33-0.42-1.33-0.91c0-0.35,0.14-0.49,0.63-0.49
		c6.79,0,14.91-2.1,15.68-2.1c0.35,0,0.49,0.07,0.49,0.42c0,0.49-0.56,3.85-0.63,8.47c1.26-5.74,4.76-8.89,10.57-8.89
		c8.19,0,11.62,3.78,11.62,11.9v7.77c0,5.53,0.28,6.3,2.17,7.63c0.7,0.49,1.12,0.63,1.12,1.05c0,0.28-0.14,0.42-0.49,0.42
		c-1.89,0-5.46-0.49-9.03-0.49c-3.5,0-7.91,0.49-8.68,0.49C274.26,57.54,274.19,57.4,274.19,57.12z"/>
	<path class="st0" d="M319.13,57.26c0-0.35,0.35-3.29,0.56-6.02h-0.14c-1.26,4.2-3.99,6.86-8.68,6.86
		c-7.98,0-14.91-5.74-14.91-14.28c0-9.17,6.93-15.05,14.91-15.05c3.78,0,6.23,1.19,7.7,3.71h0.07v-2.52
		c-0.14-10.15-0.7-11.97-2.8-13.16c-0.91-0.56-1.26-0.7-1.26-1.19c0-0.28,0.21-0.49,0.63-0.49c8.89,0,15.12-3.29,15.96-3.29
		c0.28,0,0.42,0.14,0.42,0.42c0,0.7-0.49,3.01-0.49,13.23l0.07,19.46c0,7.35,0.21,8.61,3.15,9.8c0.7,0.28,0.91,0.35,0.91,0.77
		c0,0.35-0.21,0.49-0.63,0.49c-6.65,0-14.21,1.68-14.98,1.68C319.27,57.68,319.13,57.61,319.13,57.26z M313.39,56.14
		c3.29,0,5.74-4.2,5.81-12.32c0.07-9.8-2.24-13.3-5.6-13.3c-3.22,0-4.27,3.36-4.48,13.3C309.33,52.78,310.38,56.14,313.39,56.14z"/>
	<path class="st0" d="M4.2,127.33c0-0.91,0.21-3.5,0.21-6.93c0-5.04-0.56-8.54-0.56-9.17c0-0.35,0.21-0.56,0.49-0.56
		c0.35,0,0.49,0.14,0.77,0.77c4.2,8.54,9.17,15.61,19.11,15.61c5.46,0,8.89-2.87,8.89-7.35c0-4.34-2.24-6.65-11.2-8.75l-3.57-0.84
		C8.05,107.8,3.78,102.97,3.78,96.04c0-9.59,9.24-14,17.92-14c8.33,0,12.18,3.22,14.7,3.22c1.26,0,1.61-0.7,1.82-2.03
		c0.14-0.91,0.28-1.26,0.77-1.26c0.42,0,0.56,0.21,0.56,0.63c0,0.7,0.07,3.85,0.28,6.37c0.28,3.29,0.84,7.42,0.84,7.84
		c0,0.21-0.21,0.42-0.49,0.42c-0.35,0-0.56-0.21-0.7-0.63c-3.78-7.77-8.89-13.65-17.57-13.65c-5.67,0-8.26,2.8-8.26,6.23
		c0,4.06,3.15,5.67,8.89,7.07l6.23,1.47c9.8,2.31,14.84,6.02,14.84,14.42c0,10.99-10.36,15.96-19.53,15.96
		c-8.12,0-13.09-3.22-15.89-3.22c-1.4,0-2.45,0.63-2.8,2.31c-0.14,0.7-0.21,0.91-0.7,0.91C4.27,128.1,4.2,127.96,4.2,127.33z"/>
	<path class="st0" d="M50.75,116.62v-9.38c0-3.92-0.49-4.83-2.24-5.6c-0.98-0.42-1.33-0.49-1.33-0.98c0-0.35,0.14-0.42,0.7-0.42
		c6.16,0,14.28-1.19,15.05-1.19c0.49,0,0.7,0.21,0.7,0.77c0,0.63-0.42,1.54-0.42,7.7v11.06c0,4.34,1.12,6.44,3.36,6.44
		c2.87,0,5.04-3.71,5.18-10.29c-0.07-10.71-0.28-12.11-1.68-12.95c-0.84-0.56-1.26-0.63-1.26-1.12c0-0.35,0.21-0.42,0.7-0.42
		c5.6,0,13.86-1.19,14.7-1.19c0.35,0,0.49,0.07,0.49,0.35c0,0.42-0.49,2.87-0.49,10.36v5.18c0,7.63,0.21,8.96,3.15,10.22
		c0.7,0.28,0.91,0.35,0.91,0.77c0,0.35-0.21,0.49-0.63,0.49c-6.79,0-13.23,1.54-14,1.54c-0.49,0-0.7-0.14-0.84-0.77
		c-0.14-0.42-0.63-3.15-0.7-7c-1.19,5.25-4.27,7.91-10.01,7.91C55.3,128.1,50.75,125.51,50.75,116.62z"/>
	<path class="st0" d="M93.38,127.12c0-0.7,0.28-2.52,0.28-10.01V96.95c0-7.98-2.17-9.38-3.15-10.29c-0.28-0.28-0.49-0.49-0.49-0.84
		c0-0.42,0.28-0.56,0.7-0.56c9.03,0,13.65-3.64,15.05-3.64c0.28,0,0.56,0.21,0.56,0.63c0,0.56-0.21,2.45-0.14,4.2v17.64h0.21
		c1.19-3.43,3.78-5.32,8.82-5.32c6.72,0,13.65,4.83,13.65,14.28s-6.93,15.05-15.89,15.05c-3.01,0-4.48-0.7-7.63-2.59
		c-2.66-1.54-3.43-2.1-3.92-2.1s-0.84,0.21-1.68,0.77l-3.78,3.08c-0.77,0.56-1.26,0.84-1.75,0.84
		C93.73,128.1,93.38,127.82,93.38,127.12z M111.09,126.7c3.01,0,4.62-2.52,4.62-13.65c0-8.96-0.7-12.18-4.06-12.18
		c-3.15,0-5.6,3.01-5.53,12.39v2.38C106.26,124.67,108.57,126.7,111.09,126.7z"/>
	<path class="st0" d="M136.78,125.79c-0.7,0-0.91,0.28-1.19,1.4c-0.07,0.49-0.28,0.63-0.56,0.63c-0.28,0-0.49-0.21-0.49-0.63
		c-0.07-0.35,0.07-1.75,0.07-3.22c0-3.01-0.7-6.09-0.7-6.93c0-0.42,0.21-0.49,0.42-0.49c0.28,0,0.42,0.14,0.63,0.7
		c2.24,6.65,7.56,9.8,13.37,9.8c3.64,0,5.6-1.54,5.6-3.99c0-2.03-0.77-3.43-5.88-4.62l-4.76-1.12c-6.51-1.61-9.52-3.85-9.52-9.1
		c0-6.3,6.37-9.45,13.79-9.45c5.81,0,9.94,2.38,10.99,2.38c0.7,0,0.91-0.7,1.12-1.61c0.07-0.49,0.28-0.63,0.56-0.63
		c0.28,0,0.56,0.21,0.56,0.7c0,5.53,1.4,8.12,1.4,8.68c0,0.28-0.14,0.42-0.42,0.42c-0.35,0-0.56-0.21-0.77-0.63
		c-2.94-5.53-8.12-8.33-12.81-8.33c-3.78,0-5.53,1.33-5.53,3.15c0,2.17,1.82,3.08,5.11,3.78l6.02,1.33c6.65,1.47,9.94,4.2,9.94,9.17
		c0,7.63-8.75,10.92-15.33,10.92C143.08,128.1,138.04,125.79,136.78,125.79z"/>
	<path class="st0" d="M170.8,115.71v-11.62c0-2.1-0.42-2.59-1.96-2.73l-1.19-0.14c-0.7-0.07-0.91-0.35-0.91-0.77
		c0-0.42,0.28-0.7,0.91-0.77c7.77-0.56,10.85-3.64,14.49-11.13c0.28-0.56,0.49-0.77,0.91-0.77c0.28,0,0.56,0.21,0.56,0.84
		l-0.07,10.71c0,0.28,0.21,0.49,0.42,0.49l7.7-0.07c0.56,0,1.05,0.21,1.05,0.98c0,0.7-0.42,0.98-0.91,0.98
		c-1.61,0-3.85-0.07-7.84-0.14c-0.28,0-0.49,0.21-0.49,0.42l-0.14,18.13c0,3.15,1.19,4.62,3.99,4.62c2.94,0,4.41-2.17,4.41-5.11
		c0-0.7,0.28-0.84,0.63-0.84c0.35,0,0.63,0.14,0.63,0.91c0,4.2-2.38,8.4-10.43,8.4C174.72,128.1,170.8,124.88,170.8,115.71z"/>
	<path class="st0" d="M216.09,121.24c-1.47,4.83-5.46,6.86-11.13,6.86c-5.18,0-8.75-2.03-8.75-6.58c0-7,9.31-8.68,19.53-9.52v-5.81
		c0-5.04-1.96-6.3-4.97-6.3c-2.87,0-4.27,1.19-4.27,2.52c0,1.54,1.4,2.66,1.4,4.48c0,2.24-2.03,3.99-5.11,3.99
		c-3.15,0-5.11-1.75-5.11-4.48c0-3.92,3.99-7.63,15.12-7.63c9.66,0,16.8,2.8,16.8,13.51v9.94c0,1.68,0.63,2.45,1.61,2.45
		c1.05,0,1.82-0.63,1.82-3.01c0-0.42,0.28-0.56,0.7-0.56c0.35,0,0.56,0.14,0.56,0.56c0,3.71-1.4,6.44-8.47,6.44
		C220.22,128.1,217.07,126.21,216.09,121.24z M211.12,124.74c2.38,0,4.62-3.22,4.62-8.26v-3.36l-0.56,0.14
		c-3.08,0.63-4.48,1.12-5.46,2.1c-1.12,1.05-1.4,2.59-1.4,4.41C208.32,122.71,209.16,124.74,211.12,124.74z"/>
	<path class="st0" d="M258.93,127.12c0-0.42,0.35-0.56,1.26-1.12c1.54-1.19,1.68-2.1,1.68-7.56v-13.23c0-3.01-0.98-4.06-2.94-4.06
		c-3.29,0-6.44,4.41-6.44,12.95v3.57c0,6.37,0.21,7.7,2.03,8.47c0.98,0.42,1.33,0.56,1.33,0.98c0,0.28-0.14,0.42-0.49,0.42
		c-0.56,0-5.18-0.49-9.1-0.49s-8.96,0.49-9.66,0.49c-0.42,0-0.49-0.14-0.49-0.42c0-0.42,0.35-0.56,1.26-1.05
		c2.52-1.4,2.66-2.17,2.66-8.89v-5.25c0-7.35-0.21-8.61-2.73-9.66c-0.98-0.35-1.33-0.42-1.33-0.91c0-0.35,0.14-0.49,0.63-0.49
		c6.79,0,14.91-2.1,15.68-2.1c0.35,0,0.49,0.07,0.49,0.42c0,0.49-0.56,3.85-0.63,8.47c1.26-5.74,4.76-8.89,10.57-8.89
		c8.19,0,11.62,3.78,11.62,11.9v7.77c0,5.53,0.28,6.3,2.17,7.63c0.7,0.49,1.12,0.63,1.12,1.05c0,0.28-0.14,0.42-0.49,0.42
		c-1.89,0-5.46-0.49-9.03-0.49c-3.5,0-7.91,0.49-8.68,0.49C259,127.54,258.93,127.4,258.93,127.12z"/>
	<path class="st0" d="M312.34,118.58v0.14c-0.91,4.55-4.27,9.38-14.63,9.38c-10.08,0-17.01-5.81-17.01-14.21
		c0-9.45,7.14-15.12,18.83-15.12c5.18,0,7.7,1.75,8.82,1.75c0.98,0,1.33-0.77,1.54-1.68c0.14-0.42,0.35-0.56,0.63-0.56
		s0.49,0.21,0.49,0.63c0,7.21,0.98,11.2,0.98,11.76c0,0.42-0.14,0.56-0.49,0.56c-0.28,0-0.56-0.21-0.7-0.7
		c-1.89-6.79-4.83-10.36-9.31-10.36c-3.78,0-6.72,3.22-6.72,11.76c0,8.96,2.8,12.95,7.98,12.95c4.06,0,7.49-2.17,8.61-6.09
		c0.14-0.49,0.21-0.63,0.56-0.63C312.2,118.16,312.34,118.23,312.34,118.58z"/>
	<path class="st0" d="M315.98,113.26c0-8.89,7.42-14.49,17.64-14.49c8.89,0,15.54,4.48,15.54,11.2c0,1.89-0.84,3.22-2.73,3.22
		l-17.29-0.07c0.14,8.26,2.45,11.97,8.4,11.97c4.76,0,8.61-2.03,10.29-5.88c0.21-0.49,0.28-0.7,0.63-0.7c0.28,0,0.49,0.14,0.49,0.42
		c0,0.28-0.07,0.49-0.21,0.98c-1.68,4.76-7.14,8.19-14.63,8.19C323.12,128.1,315.98,122.01,315.98,113.26z M336.14,111.58
		c1.47,0,1.61-0.14,1.61-3.01c0-6.86-1.4-8.82-4.06-8.82c-3.43,0-4.48,2.94-4.55,11.9L336.14,111.58z"/>
</g>
<g>
	<g>
		<path d="M449.76,192.85c1.93,0,1.93-3,0-3C447.83,189.85,447.82,192.85,449.76,192.85L449.76,192.85z"/>
	</g>
</g>
</svg>
